<?xml version="1.0" encoding="utf-8"?>
<!-- Generator: Adobe Illustrator 26.3.1, SVG Export Plug-In . SVG Version: 6.00 Build 0)  -->
<svg version="1.1" id="Ebene_1" xmlns="http://www.w3.org/2000/svg" xmlns:xlink="http://www.w3.org/1999/xlink" x="0px" y="0px"
	 viewBox="0 0 9.7 20.3" style="enable-background:new 0 0 9.7 20.3;" xml:space="preserve">
<style type="text/css">
	.st0{clip-path:url(#SVGID_00000025409578086300990040000003771974276796378045_);fill:#60B3B6;}
</style>
<g>
	<defs>
		<rect id="SVGID_1_" width="9.7" height="20.3"/>
	</defs>
	<clipPath id="SVGID_00000050622950048854810530000011736933748641549733_">
		<use xlink:href="#SVGID_1_"  style="overflow:visible;"/>
	</clipPath>
	<path style="clip-path:url(#SVGID_00000050622950048854810530000011736933748641549733_);fill:#60B3B6;" d="M1.2,20.3
		C1.4,20.2,1.7,20,2,19.7c2.4-2.9,4.9-5.8,7.3-8.6c0.5-0.6,0.6-1.2,0-1.9C6.8,6.3,4.4,3.5,2,0.6C1.5,0,1-0.2,0.4,0.3
		c-0.6,0.5-0.5,1.2,0,1.8c1.7,2.1,3.5,4.1,5.2,6.2C5.9,8.6,6.2,9,6.5,9.3c0.6,0.6,0.6,1.1,0,1.8c-1.9,2.2-3.8,4.4-5.7,6.7
		c-0.3,0.3-0.6,0.6-0.7,1C-0.2,19.5,0.3,20.3,1.2,20.3"/>
</g>
</svg>
